# File created by Blade
# Date/Time:  Wed Jan 21 14:58:19 2015
#---------------------------------------------------------
:version 1.10
:name HOM
:units
  mass 1.0
  length 1.000000
  angle deg
:documentation
     Acclaim Skeleton File
:root
   axis xyz
   order TX TY TZ RX RY RZ
   position 0.000000 0.000000 0.000000
   orientation 0 0 0
:bonedata
   begin
      id 1
      name Spine_dum
      direction 0.000000 1.000000 0.000000
      length 7.067664
      axis 0.0 0.0 0.0 xyz
   end
   begin
      id 2
      name LeftUpLeg_dum
      direction 1.000000 0.000000 0.000000
      length 4.013002
      axis 0.0 0.0 0.0 xyz
   end
   begin
      id 3
      name RightUpLeg_dum
      direction -1.000000 0.000000 0.000000
      length 4.013002
      axis 0.0 0.0 0.0 xyz
   end
   begin
      id 4
      name Spine
      direction 0.000000 1.000000 0.000000
      length 0.000000
      axis 0.0 0.0 0.0 xyz
      dof rx ry rz
   end
   begin
      id 5
      name Spine_dum1
      direction 0.000000 1.000000 0.000000
      length 15.039886
      axis 0.0 0.0 0.0 xyz
   end
   begin
      id 6
      name Spine_dum2
      direction 0.000000 1.000000 0.000000
      length 10.530368
      axis 0.0 0.0 0.0 xyz
   end
   begin
      id 7
      name Spine_dum3
      direction 0.000000 1.000000 0.000000
      length 10.530368
      axis 0.0 0.0 0.0 xyz
   end
   begin
      id 8
      name Head
      direction 0.000000 1.000000 0.000000
      length 4.527550
      axis 0.0 0.0 0.0 xyz
      dof rx ry rz
   end
   begin
      id 9
      name LeftShoulder
      direction 1.000000 0.000000 0.000000
      length 7.028855
      axis 0.0 0.0 -90.0 xyz
      dof rx ry rz
   end
   begin
      id 10
      name LeftArm
      direction 1.000000 0.000000 0.000000
      length 10.797705
      axis 0.0 0.0 -90.0 xyz
      dof rx ry rz
   end
   begin
      id 11
      name LeftForeArm
      direction 1.000000 0.000000 0.000000
      length 7.907442
      axis 0.0 0.0 -90.0 xyz
      dof ry rz rx
   end
   begin
      id 12
      name LeftHand
      direction 0.000000 0.000000 0.000000
      length 0.000000
      axis 0.0 0.0 -90.0 xyz
      dof rx ry rz
   end
   begin
      id 13
      name LeftHand_dum1
      direction 0.000000 0.000000 0.000000
      length 0.000000
      axis 0.0 0.0 -90.0 xyz
   end
   begin
      id 14
      name LeftHand_dum2
      direction 1.000000 0.000000 0.000000
      length 3.937000
      axis 0.0 0.0 -90.0 xyz
   end
   begin
      id 15
      name LeftHandThumb1
      direction 0.000000 0.000000 1.000000
      length 3.937000
      axis 0.0 0.0 -90.0 xyz
      dof rx rz ry
   end
   begin
      id 16
      name RightShoulder
      direction -1.000000 0.000000 0.000000
      length 7.028855
      axis 0.0 0.0 90.0 xyz
      dof rx ry rz
   end
   begin
      id 17
      name RightArm
      direction -1.000000 0.000000 0.000000
      length 10.797705
      axis 0.0 0.0 90.0 xyz
      dof rx ry rz
   end
   begin
      id 18
      name RightForeArm
      direction -1.000000 0.000000 0.000000
      length 7.907442
      axis 0.0 0.0 90.0 xyz
      dof ry rz rx
   end
   begin
      id 19
      name RightHand
      direction 0.000000 0.000000 0.000000
      length 0.000000
      axis 0.0 0.0 90.0 xyz
      dof rx ry rz
   end
   begin
      id 20
      name RightHand_dum1
      direction 0.000000 0.000000 0.000000
      length 0.000000
      axis 0.0 0.0 90.0 xyz
   end
   begin
      id 21
      name RightHand_dum2
      direction -1.000000 0.000000 0.000000
      length 3.937000
      axis 0.0 0.0 90.0 xyz
   end
   begin
      id 22
      name RightHandThumb1
      direction 0.000000 0.000000 1.000000
      length 3.937000
      axis 0.0 0.0 90.0 xyz
      dof rx rz ry
   end
   begin
      id 23
      name LeftUpLeg
      direction 0.000000 -1.000000 0.000000
      length 16.899758
      axis 0.0 0.0 0.0 xyz
      dof rx ry rz
   end
   begin
      id 24
      name LeftLeg
      direction 0.000000 -1.000000 0.000000
      length 17.389183
      axis 0.0 0.0 0.0 xyz
      dof rx ry rz
   end
   begin
      id 25
      name LeftFoot
      direction 0.000000 -0.258819 0.965926
      length 4.924528
      axis 15.0 0.0 0.0 xyz
      dof rx ry rz
   end
   begin
      id 26
      name LeftToeBase
      direction 0.000000 0.000000 1.000000
      length 2.952750
      axis 0.0 0.0 0.0 xyz
      dof rx ry rz
   end
   begin
      id 27
      name RightUpLeg
      direction 0.000000 -1.000000 0.000000
      length 16.899758
      axis 0.0 0.0 0.0 xyz
      dof rx ry rz
   end
   begin
      id 28
      name RightLeg
      direction 0.000000 -1.000000 0.000000
      length 17.389183
      axis 0.0 0.0 0.0 xyz
      dof rx ry rz
   end
   begin
      id 29
      name RightFoot
      direction 0.000000 -0.258819 0.965926
      length 4.924528
      axis 15.0 0.0 0.0 xyz
      dof rx ry rz
   end
   begin
      id 30
      name RightToeBase
      direction 0.000000 0.000000 1.000000
      length 2.952750
      axis 0.0 0.0 0.0 xyz
      dof rx ry rz
   end
:hierarchy
   begin
      root Spine_dum LeftUpLeg_dum RightUpLeg_dum
      Spine_dum Spine
      LeftUpLeg_dum LeftUpLeg
      RightUpLeg_dum RightUpLeg
      Spine Spine_dum1 Spine_dum2 Spine_dum3
      Spine_dum1 Head
      Spine_dum2 LeftShoulder
      Spine_dum3 RightShoulder
      LeftShoulder LeftArm
      LeftArm LeftForeArm
      LeftForeArm LeftHand
      LeftHand LeftHand_dum1 LeftHand_dum2
      LeftHand_dum1 LeftHandThumb1
      RightShoulder RightArm
      RightArm RightForeArm
      RightForeArm RightHand
      RightHand RightHand_dum1 RightHand_dum2
      RightHand_dum1 RightHandThumb1
      LeftUpLeg LeftLeg
      LeftLeg LeftFoot
      LeftFoot LeftToeBase
      RightUpLeg RightLeg
      RightLeg RightFoot
      RightFoot RightToeBase
   end

# File created by Blade
# Date/Time:  Wed Jan 21 14:58:10 2015
# Frame Rate: 120.000 fps
#------------------------------------------------------
:FULLY-SPECIFIED
:DEGREES
75
root 17.859101 35.300654 -23.198259 -170.550431 -14.217727 -179.399062
Spine -19.536941 4.610175 -1.479281
Head 10.943721 6.933384 2.509321
LeftShoulder -13.802126 -34.240511 22.881359
LeftArm 1.601708 4.597417 -6.668983
LeftForeArm 13.160222 -0.000000 -2.139071
LeftHand -6.225949 -0.000000 -10.962807
LeftHandThumb1 -26.253704 0.000000 33.147579
RightShoulder -11.689446 -2.217634 -11.687873
RightArm 4.503472 33.861279 7.916384
RightForeArm -36.013145 -0.000000 5.380351
RightHand -6.422068 0.000000 10.853999
RightHandThumb1 -24.326973 -0.000000 -32.862282
LeftUpLeg -3.564372 -1.849626 6.301350
LeftLeg -5.736195 -0.000000 0.000000
LeftFoot -18.553096 23.799730 -12.183461
LeftToeBase 27.584832 -0.000000 -0.000000
RightUpLeg 1.030567 -16.710816 -0.643866
RightLeg -4.259204 -0.000000 0.000000
RightFoot -23.004641 -24.406608 19.262133
RightToeBase 22.181847 -0.000000 -0.000000
76
root 17.861531 35.300183 -23.195886 -170.551769 -14.537923 -179.428058
Spine -19.546269 4.926626 -1.606246
Head 11.051115 7.125602 2.580812
LeftShoulder -13.776895 -34.206019 22.861492
LeftArm 1.577799 4.547917 -6.602603
LeftForeArm 13.171430 0.000000 -2.146800
LeftHand -6.192089 -0.000000 -10.955227
LeftHandThumb1 -26.253704 0.000000 33.147579
RightShoulder -11.685048 -2.313812 -11.655310
RightArm 4.540878 34.036249 7.847646
RightForeArm -36.178459 -0.000000 5.351310
RightHand -6.319680 -0.000000 10.950528
RightHandThumb1 -24.326973 -0.000000 -32.862282
LeftUpLeg -3.642361 -2.057582 6.315980
LeftLeg -5.726550 -0.000000 0.000000
LeftFoot -18.492782 23.729453 -12.143076
LeftToeBase 27.623924 -0.000000 -0.000000
RightUpLeg 1.098340 -16.898554 -0.628247
RightLeg -4.304278 -0.000000 0.000000
RightFoot -23.082446 -24.530958 19.372475
RightToeBase 22.187219 -0.000000 -0.000000
77
root 17.863910 35.298778 -23.194194 -170.571403 -14.874749 -179.465248
Spine -19.518211 5.181029 -1.730728
Head 11.138101 7.428094 2.730139
LeftShoulder -13.859910 -34.189576 22.927575
LeftArm 1.572015 4.513449 -6.569372
LeftForeArm 13.289787 0.000000 -2.140089
LeftHand -6.231522 -0.000000 -10.900660
LeftHandThumb1 -26.253704 0.000000 33.147579
RightShoulder -11.617696 -2.310324 -11.665232
RightArm 4.507165 34.105920 7.820726
RightForeArm -36.303752 -0.000000 5.431326
RightHand -6.287543 -0.000000 11.009299
RightHandThumb1 -24.326973 -0.000000 -32.862282
LeftUpLeg -3.699663 -2.281699 6.323909
LeftLeg -5.721380 -0.000000 0.000000
LeftFoot -18.416732 23.669684 -12.087296
LeftToeBase 27.590011 -0.000000 -0.000000
RightUpLeg 1.190782 -17.079601 -0.636413
RightLeg -4.318101 -0.000000 0.000000
RightFoot -23.134963 -24.600326 19.393960
RightToeBase 22.127507 -0.000000 -0.000000
78
root 17.866503 35.298018 -23.191178 -170.573787 -15.218571 -179.491106
Spine -19.519190 5.506048 -1.858316
Head 11.223990 7.603337 2.810748
LeftShoulder -13.868203 -34.131437 22.929317
LeftArm 1.610229 4.389197 -6.550004
LeftForeArm 13.399607 0.000000 -2.200201
LeftHand -6.155173 -0.000000 -10.783685
LeftHandThumb1 -26.253704 0.000000 33.147579
RightShoulder -11.668904 -2.284388 -11.674860
RightArm 4.591103 34.105256 7.822567
RightForeArm -36.320730 -0.000000 5.444834
RightHand -6.311533 -0.000000 10.972460
RightHandThumb1 -24.326973 -0.000000 -32.862282
LeftUpLeg -3.786143 -2.510249 6.349183
LeftLeg -5.701714 -0.000000 0.000000
LeftFoot -18.382414 23.575611 -12.076084
LeftToeBase 27.659338 -0.000000 -0.000000
RightUpLeg 1.252093 -17.270751 -0.618855
RightLeg -4.335123 -0.000000 0.000000
RightFoot -23.218814 -24.695016 19.468225
RightToeBase 22.169208 -0.000000 -0.000000
79
root 17.867872 35.296914 -23.190405 -170.585252 -15.569655 -179.527675
Spine -19.524401 5.806958 -1.990371
Head 11.309567 7.777647 2.905542
LeftShoulder -13.836171 -34.172022 22.943051
LeftArm 1.546224 4.484425 -6.524828
LeftForeArm 13.225263 -0.000000 -2.178948
LeftHand -6.229727 -0.000000 -10.629922
LeftHandThumb1 -26.253704 0.000000 33.147579
RightShoulder -11.653783 -2.334191 -11.675544
RightArm 4.654010 34.139771 7.810110
RightForeArm -36.208882 -0.000000 5.389148
RightHand -6.297628 -0.000000 10.881932
RightHandThumb1 -24.326973 -0.000000 -32.862282
LeftUpLeg -3.863248 -2.757115 6.362440
LeftLeg -5.674916 -0.000000 0.000000
LeftFoot -18.326133 23.506310 -12.025305
LeftToeBase 27.700148 -0.000000 -0.000000
RightUpLeg 1.342236 -17.503118 -0.615649
RightLeg -4.375597 -0.000000 0.000000
RightFoot -23.279265 -24.802675 19.541897
RightToeBase 22.114499 -0.000000 -0.000000
80
root 17.868782 35.296513 -23.188392 -170.576960 -15.900666 -179.558883
Spine -19.542131 6.106333 -2.122294
Head 11.404967 8.021569 3.021270
LeftShoulder -13.942879 -34.044979 23.042524
LeftArm 1.596646 4.393569 -6.615327
LeftForeArm 12.931309 -0.000000 -2.173099
LeftHand -6.322594 -0.000000 -10.379469
LeftHandThumb1 -26.253704 0.000000 33.147579
RightShoulder -11.611791 -2.298552 -11.653762
RightArm 4.707547 34.009198 7.736559
RightForeArm -36.190431 -0.000000 5.318875
RightHand -6.306059 -0.000000 10.830280
RightHandThumb1 -24.326973 -0.000000 -32.862282
LeftUpLeg -3.959574 -3.022758 6.387167
LeftLeg -5.646103 -0.000000 0.000000
LeftFoot -18.295095 23.443244 -12.032197
LeftToeBase 27.715300 -0.000000 -0.000000
RightUpLeg 1.390267 -17.673765 -0.608502
RightLeg -4.371701 -0.000000 0.000000
RightFoot -23.363833 -24.888746 19.689253
RightToeBase 22.017961 -0.000000 -0.000000
81
root 17.868912 35.295564 -23.187431 -170.554231 -16.207607 -179.598046
Spine -19.582713 6.450041 -2.272685
Head 11.467390 8.214021 3.117967
LeftShoulder -13.886676 -34.149222 23.065765
LeftArm 1.432837 4.480582 -6.514825
LeftForeArm 13.049150 -0.000000 -2.086269
LeftHand -6.277150 -0.000000 -10.492946
LeftHandThumb1 -26.253704 0.000000 33.147579
RightShoulder -11.630801 -2.302643 -11.663602
RightArm 4.819898 33.963710 7.758502
RightForeArm -36.138097 -0.000000 5.281778
RightHand -6.285629 -0.000000 10.798183
RightHandThumb1 -24.326973 -0.000000 -32.862282
LeftUpLeg -4.053484 -3.171267 6.383945
LeftLeg -5.632339 -0.000000 0.000000
LeftFoot -18.250322 23.319321 -12.025423
LeftToeBase 27.751887 -0.000000 -0.000000
RightUpLeg 1.432442 -17.823710 -0.604744
RightLeg -4.395601 -0.000000 0.000000
RightFoot -23.384728 -24.987830 19.644487
RightToeBase 22.190125 -0.000000 -0.000000
82
root 17.871235 35.294103 -23.184876 -170.571405 -16.540688 -179.622242
Spine -19.573126 6.778549 -2.388206
Head 11.558388 8.452693 3.255825
LeftShoulder -13.907277 -34.166054 23.082604
LeftArm 1.413775 4.460720 -6.465182
LeftForeArm 13.031257 0.000000 -2.092337
LeftHand -6.181862 -0.000000 -10.646454
LeftHandThumb1 -26.253704 0.000000 33.147579
RightShoulder -11.596201 -2.257726 -11.734631
RightArm 4.794761 33.950707 7.799570
RightForeArm -36.188025 -0.000000 5.417807
RightHand -6.296186 -0.000000 10.799319
RightHandThumb1 -24.326973 -0.000000 -32.862282
LeftUpLeg -4.124489 -3.378863 6.408333
LeftLeg -5.605790 -0.000000 0.000000
LeftFoot -18.220774 23.185375 -12.021750
LeftToeBase 27.768498 -0.000000 -0.000000
RightUpLeg 1.508079 -18.020064 -0.585916
RightLeg -4.422509 -0.000000 0.000000
RightFoot -23.462787 -25.130197 19.706503
RightToeBase 22.260504 -0.000000 -0.000000
83
root 17.873021 35.293315 -23.182706 -170.582189 -16.890106 -179.654837
Spine -19.584324 7.102840 -2.522042
Head 11.690794 8.682862 3.393170
LeftShoulder -13.943117 -34.053689 23.093310
LeftArm 1.483184 4.306585 -6.461212
LeftForeArm 13.082138 -0.000000 -2.138276
LeftHand -6.294414 -0.000000 -10.506749
LeftHandThumb1 -26.253704 0.000000 33.147579
RightShoulder -11.565551 -2.297271 -11.726257
RightArm 4.848478 34.115325 7.792354
RightForeArm -36.336982 -0.000000 5.414217
RightHand -6.340892 -0.000000 10.824838
RightHandThumb1 -24.326973 -0.000000 -32.862282
LeftUpLeg -4.200520 -3.589881 6.422708
LeftLeg -5.586407 -0.000000 0.000000
LeftFoot -18.163087 23.080816 -11.980963
LeftToeBase 27.820664 -0.000000 -0.000000
RightUpLeg 1.590329 -18.237121 -0.578486
RightLeg -4.452014 -0.000000 0.000000
RightFoot -23.514424 -25.285731 19.708369
RightToeBase 22.310783 -0.000000 -0.000000
84
root 17.872335 35.291636 -23.182954 -170.590730 -17.248921 -179.695999
Spine -19.597001 7.421591 -2.663873
Head 11.782706 8.883470 3.507766
LeftShoulder -13.985314 -33.945584 23.136973
LeftArm 1.511671 4.192739 -6.488814
LeftForeArm 13.029368 -0.000000 -2.136140
LeftHand -6.308624 -0.000000 -10.488822
LeftHandThumb1 -26.253704 0.000000 33.147579
RightShoulder -11.533516 -2.316512 -11.736374
RightArm 4.876900 34.078627 7.795055
RightForeArm -36.174838 -0.000000 5.405292
RightHand -6.370400 -0.000000 10.663882
RightHandThumb1 -24.326973 -0.000000 -32.862282
LeftUpLeg -4.262131 -3.836728 6.430017
LeftLeg -5.591680 -0.000000 0.000000
LeftFoot -18.097403 23.005366 -11.946109
LeftToeBase 27.832187 -0.000000 -0.000000
RightUpLeg 1.683081 -18.465461 -0.595330
RightLeg -4.469044 -0.000000 0.000000
RightFoot -23.531697 -25.318775 19.624574
RightToeBase 22.352451 -0.000000 -0.000000
